<?xml version="1.0" encoding="UTF-8" standalone="no"?>
<svg
   viewBox="0 0 128 128"
   version="1.1"
   id="svg6"
   sodipodi:docname="netmikro.svg"
   xml:space="preserve"
   inkscape:version="1.3 (0e150ed6c4, 2023-07-21)"
   xmlns:inkscape="http://www.inkscape.org/namespaces/inkscape"
   xmlns:sodipodi="http://sodipodi.sourceforge.net/DTD/sodipodi-0.dtd"
   xmlns="http://www.w3.org/2000/svg"
   xmlns:svg="http://www.w3.org/2000/svg"><defs
     id="defs6"><filter
       id="mask-powermask-path-effect21_inverse"
       inkscape:label="filtermask-powermask-path-effect21"
       style="color-interpolation-filters:sRGB"
       height="100"
       width="100"
       x="-50"
       y="-50"><feColorMatrix
         id="mask-powermask-path-effect21_primitive1"
         values="1"
         type="saturate"
         result="fbSourceGraphic" /><feColorMatrix
         id="mask-powermask-path-effect21_primitive2"
         values="-1 0 0 0 1 0 -1 0 0 1 0 0 -1 0 1 0 0 0 1 0 "
         in="fbSourceGraphic" /></filter></defs><sodipodi:namedview
     id="namedview6"
     pagecolor="#ffffff"
     bordercolor="#000000"
     borderopacity="0.25"
     inkscape:showpageshadow="2"
     inkscape:pageopacity="0.0"
     inkscape:pagecheckerboard="0"
     inkscape:deskcolor="#d1d1d1"
     inkscape:zoom="2.6792718"
     inkscape:cx="-9.5175115"
     inkscape:cy="81.55201"
     inkscape:window-width="1366"
     inkscape:window-height="699"
     inkscape:window-x="0"
     inkscape:window-y="0"
     inkscape:window-maximized="1"
     inkscape:current-layer="svg6" /><linearGradient
     id="python-original-a"
     gradientUnits="userSpaceOnUse"
     x1="70.252"
     y1="1237.476"
     x2="170.659"
     y2="1151.089"
     gradientTransform="matrix(0.563,0,0,-0.568,-167.03472,727.0534)"><stop
       offset="0"
       stop-color="#5A9FD4"
       id="stop1"
       style="stop-color:#c70e12;stop-opacity:1;" /><stop
       offset="1"
       stop-color="#306998"
       id="stop2"
       style="stop-color:#c70e12;stop-opacity:1;" /></linearGradient><linearGradient
     id="python-original-b"
     gradientUnits="userSpaceOnUse"
     x1="209.474"
     y1="1098.811"
     x2="173.62"
     y2="1149.537"
     gradientTransform="matrix(0.563,0,0,-0.568,-167.03472,727.0534)"><stop
       offset="0"
       stop-color="#FFD43B"
       id="stop3"
       style="stop-color:#c70e12;stop-opacity:1;" /><stop
       offset="1"
       stop-color="#FFE873"
       id="stop4"
       style="stop-color:#c70e12;stop-opacity:1;" /></linearGradient><radialGradient
     id="python-original-c"
     cx="1825.678"
     cy="444.45"
     r="26.743"
     gradientTransform="matrix(0 -.24 -1.055 0 532.979 557.576)"
     gradientUnits="userSpaceOnUse"><stop
       offset="0"
       stop-color="#B8B8B8"
       stop-opacity=".498"
       id="stop5" /><stop
       offset="1"
       stop-color="#7F7F7F"
       stop-opacity="0"
       id="stop6" /></radialGradient><g
     id="g41"
     transform="matrix(1.2027629,0,0,1.2027629,182.73174,-19.945818)"><path
       d="m -103.5625,71.054687 h -7.18164 c 0.39248,0.575216 0.78568,1.151679 1.21875,1.722657 0.57109,0.752948 1.17859,1.500822 1.82422,2.238281 0.64563,0.737459 1.33001,1.465 2.05469,2.177734 0.72467,0.712735 1.45906,1.380726 2.20117,2.009766 0.74211,0.62904 1.49101,1.218967 2.24218,1.769531 0.75118,0.550565 1.505932,1.061753 2.257818,1.539063 0.751885,0.477309 1.501864,0.920804 2.246093,1.330078 0.744229,0.409274 1.482729,0.7844 2.210938,1.130859 0.728209,0.346459 1.446565,0.664262 2.15039,0.953125 0.703826,0.288863 1.393375,0.548669 2.064454,0.785156 0.671078,0.236488 1.323157,0.449341 1.953125,0.638672 0.629967,0.189332 1.237865,0.356511 1.818359,0.503907 0.580494,0.147395 1.133593,0.274086 1.65625,0.384765 1.045313,0.221359 1.966686,0.374655 2.730469,0.480469 0.763783,0.105814 1.369811,0.165238 1.785156,0.197266 0.415345,0.03203 0.640625,0.03711 0.640625,0.03711 0,0 -0.256902,0.14964 -0.734375,0.378906 -0.477474,0.229267 -1.177201,0.538886 -2.064453,0.855469 -0.443626,0.158291 -0.933419,0.317198 -1.466797,0.470703 -0.533378,0.153505 -1.109941,0.300666 -1.724609,0.431641 -0.614669,0.130974 -1.267582,0.24719 -1.955079,0.33789 -0.687496,0.0907 -1.408292,0.156771 -2.160156,0.189453 -0.751863,0.03268 -1.534028,0.03136 -2.341797,-0.01172 -0.807768,-0.04308 -1.642835,-0.12904 -2.498047,-0.265625 -0.427605,-0.06829 -0.858995,-0.149145 -1.296875,-0.244141 -0.437879,-0.095 -0.881028,-0.204208 -1.328125,-0.328125 -0.447096,-0.123917 -0.89826,-0.262912 -1.353515,-0.417969 -0.455255,-0.155056 -0.914597,-0.325258 -1.376953,-0.513672 -0.462356,-0.188413 -0.928086,-0.395151 -1.396486,-0.61914 -0.4684,-0.223989 -0.94068,-0.46478 -1.41406,-0.726563 -0.47339,-0.261782 -0.94847,-0.543909 -1.42578,-0.845703 -0.47732,-0.301793 -0.95537,-0.624727 -1.43555,-0.96875 -0.48018,-0.344022 -0.96136,-0.709186 -1.44336,-1.097656 -0.48199,-0.38847 -0.96451,-0.79924 -1.44726,-1.234375 -0.48275,-0.435135 -0.96678,-0.894888 -1.44922,-1.378906 -0.48245,-0.484018 -0.96423,-0.992225 -1.44532,-1.527344 -0.48108,-0.535119 -0.93942,-1.067615 -1.375,-1.595703 -0.43557,-0.528089 -0.8482,-1.051834 -1.24023,-1.572266 -0.39203,-0.520432 -0.76283,-1.036677 -1.11328,-1.548828 -0.35045,-0.51215 -0.68136,-1.020194 -0.99219,-1.523437 -0.31083,-0.503244 -0.60181,-1.002383 -0.875,-1.496094 -0.14914,-0.269534 -0.27959,-0.534232 -0.41797,-0.800781 -0.18088,0.112746 -0.36621,0.218121 -0.54101,0.339843 -0.32871,0.228891 -0.64561,0.473587 -0.95118,0.732422 -0.30556,0.258836 -0.59865,0.531922 -0.8789,0.81836 -0.28025,0.286437 -0.548,0.586742 -0.80078,0.898437 -0.25278,0.311695 -0.4917,0.636094 -0.71485,0.970703 -0.22314,0.334609 -0.42973,0.679977 -0.62109,1.035156 -0.19136,0.35518 -0.36798,0.720345 -0.52539,1.09375 -0.15741,0.373406 -0.29667,0.755243 -0.41797,1.144532 -0.12129,0.389288 -0.22362,0.784672 -0.30664,1.1875 -0.083,0.402827 -0.14686,0.812539 -0.18945,1.226562 -0.0426,0.414023 -0.0645,0.832985 -0.0645,1.25586 v 23.515625 c 0,0.41819 0.0222,0.82385 0.0664,1.2207 0.0442,0.39685 0.11135,0.78429 0.19727,1.16016 0.0859,0.37587 0.19127,0.74045 0.3164,1.0957 0.12514,0.35526 0.26978,0.70016 0.43164,1.03516 0.16186,0.335 0.34102,0.66146 0.53711,0.97656 0.19609,0.3151 0.4089,0.62046 0.63672,0.91602 0.22782,0.29556 0.47145,0.58104 0.72852,0.85742 0.25706,0.27638 0.52673,0.54322 0.81054,0.80078 0.28382,0.25756 0.58061,0.50504 0.88867,0.74414 0.30807,0.2391 0.62721,0.47041 0.95704,0.69141 0.32982,0.221 0.67044,0.43151 1.01953,0.63476 0.34909,0.20326 0.70836,0.39811 1.07422,0.58399 0.73171,0.37175 1.4935,0.70929 2.27734,1.01367 0.78384,0.30437 1.5883,0.57653 2.4043,0.81641 0.977,0.28712 1.94867,0.54362 2.91992,0.76953 0.97125,0.2259 1.94201,0.42026 2.91601,0.58008 0.97401,0.15981 1.95224,0.28615 2.9375,0.375 0.98527,0.0888 1.9774,0.14129 2.982426,0.15429 1.00503,0.013 2.023343,-0.0143 3.056641,-0.082 1.033298,-0.0677 2.082274,-0.17677 3.152344,-0.33008 1.070069,-0.15331 2.160046,-0.34997 3.27539,-0.59375 1.115345,-0.24378 2.256658,-0.53392 3.425782,-0.87304 0.776999,-0.22513 1.551946,-0.48032 2.314453,-0.76563 0.762507,-0.28531 1.511922,-0.60105 2.236328,-0.95312 0.724405,-0.35207 1.423243,-0.73867 2.085937,-1.16407 0.331348,-0.21269 0.653351,-0.43571 0.964844,-0.66797 0.311493,-0.23225 0.613657,-0.47392 0.902344,-0.72656 0.288687,-0.25264 0.565194,-0.51717 0.828125,-0.79101 0.26293,-0.27385 0.511871,-0.55765 0.746094,-0.85352 0.234222,-0.29587 0.453686,-0.60316 0.65625,-0.92187 0.202563,-0.31872 0.388687,-0.64981 0.55664,-0.99219 0.167953,-0.34238 0.316874,-0.69564 0.447266,-1.0625 0.130391,-0.36687 0.242152,-0.7465 0.332031,-1.13867 0.08988,-0.39218 0.158663,-0.79655 0.205078,-1.21485 0.04641,-0.4183 0.07031,-0.84967 0.07031,-1.29492 V 97.70706 H -98.77935 v -3.138672 h 37.011719 c 0.448499,0 0.880524,-0.0201 1.294922,-0.05859 0.414398,-0.03849 0.810953,-0.09611 1.193359,-0.171875 0.382406,-0.07577 0.74904,-0.16943 1.101563,-0.28125 0.352523,-0.111821 0.690875,-0.242016 1.015625,-0.388672 0.324749,-0.146656 0.636461,-0.309961 0.935547,-0.490235 0.299085,-0.180273 0.585797,-0.377172 0.861328,-0.589843 0.275531,-0.212672 0.540836,-0.439743 0.794922,-0.683594 0.254085,-0.243851 0.497672,-0.503532 0.732421,-0.777344 0.23475,-0.273812 0.460212,-0.56268 0.677735,-0.865234 0.217523,-0.302555 0.4265,-0.619141 0.628906,-0.949219 0.404812,-0.660156 0.781672,-1.373782 1.138672,-2.136719 0.357,-0.762936 0.693469,-1.575672 1.019531,-2.43164 0.326062,-0.855968 0.641125,-1.756064 0.953125,-2.695313 0.32225,-0.966874 0.602928,-1.929526 0.841797,-2.892578 0.238869,-0.963052 0.436961,-1.926399 0.59375,-2.896484 0.156789,-0.970085 0.271647,-1.945621 0.347656,-2.933594 0.07601,-0.987974 0.112844,-1.987189 0.109375,-3.003906 -0.0035,-1.016718 -0.04726,-2.051105 -0.128906,-3.107422 -0.08165,-1.056318 -0.200852,-2.135415 -0.359375,-3.242188 -0.158523,-1.106772 -0.355744,-2.242073 -0.589844,-3.410156 -0.234099,-1.168083 -0.506078,-2.369126 -0.814453,-3.609375 -0.22175,-0.893124 -0.467713,-1.759046 -0.74414,-2.589844 -0.276428,-0.830798 -0.582227,-1.626477 -0.921875,-2.380859 -0.169825,-0.377191 -0.347926,-0.744164 -0.535157,-1.09961 -0.187231,-0.355445 -0.384138,-0.699311 -0.589843,-1.03125 -0.205706,-0.331938 -0.421236,-0.652314 -0.646485,-0.958984 -0.225248,-0.30667 -0.461172,-0.599266 -0.707031,-0.878906 -0.245859,-0.27964 -0.501994,-0.546026 -0.769531,-0.796875 -0.267538,-0.25085 -0.545654,-0.486734 -0.835938,-0.707031 -0.290284,-0.220298 -0.592152,-0.425297 -0.90625,-0.613282 -0.314098,-0.187984 -0.639535,-0.357808 -0.978515,-0.511718 -0.338981,-0.15391 -0.691711,-0.292082 -1.056641,-0.410157 -0.36493,-0.118074 -0.742818,-0.216397 -1.134766,-0.296875 -0.391948,-0.08048 -0.796763,-0.142474 -1.216797,-0.183593 -0.420033,-0.04112 -0.8555,-0.0625 -1.304687,-0.0625 h -9.267578 v 0.002 10.964843 c 0,0.53125 -0.02918,1.058802 -0.08398,1.578125 -0.0548,0.519324 -0.135615,1.030597 -0.242187,1.535157 -0.106572,0.50456 -0.23726,1.001321 -0.392578,1.488281 -0.155319,0.48696 -0.336071,0.965118 -0.53711,1.431641 -0.201038,0.466523 -0.422283,0.921985 -0.666015,1.365234 -0.243733,0.443249 -0.509569,0.873877 -0.792969,1.291016 -0.2834,0.417138 -0.586209,0.820793 -0.90625,1.208984 -0.320041,0.388191 -0.65611,0.760782 -1.009766,1.117187 -0.353656,0.356406 -0.723177,0.695794 -1.107421,1.017579 -0.384245,0.321784 -0.783507,0.62583 -1.195313,0.910156 -0.411806,0.284326 -0.837096,0.548938 -1.273437,0.792969 -0.436342,0.24403 -0.883946,0.46707 -1.341797,0.667968 -0.457851,0.200899 -0.92601,0.380228 -1.402344,0.535157 -0.476334,0.154929 -0.961335,0.286455 -1.453125,0.392578 -0.491791,0.106123 -0.98992,0.187707 -1.494141,0.242187 -0.50422,0.05448 -1.013719,0.08203 -1.527343,0.08203 h -9.154297 c 0.528283,0.440502 1.06004,0.864685 1.59375,1.25586 0.601026,0.440513 1.203096,0.850521 1.804687,1.232422 0.601592,0.3819 1.20141,0.735035 1.796875,1.0625 0.595466,0.327464 1.186884,0.629044 1.769531,0.90625 0.582648,0.277205 1.157565,0.530596 1.720704,0.761718 0.563138,0.231123 1.115406,0.439691 1.652343,0.628907 0.536937,0.189216 1.058456,0.358279 1.5625,0.509765 1.008088,0.302973 1.942931,0.535779 2.779297,0.712891 0.836366,0.177112 1.574436,0.300103 2.185547,0.384766 0.611111,0.08466 1.095412,0.130624 1.427734,0.15625 0.332323,0.02563 0.511719,0.0293 0.511719,0.0293 0,0 -0.203906,0.121249 -0.585937,0.304688 -0.382032,0.183439 -0.942444,0.430293 -1.652344,0.683594 -0.35495,0.12665 -0.747067,0.254132 -1.173828,0.376953 -0.426762,0.122821 -0.887104,0.240909 -1.378906,0.345703 -0.491803,0.104794 -1.01438,0.196961 -1.564454,0.269531 -0.550073,0.07257 -1.126941,0.124242 -1.728515,0.150391 -0.601574,0.02615 -1.228696,0.02666 -1.875,-0.0078 -0.646304,-0.03447 -1.31183,-0.103607 -1.996094,-0.21289 -0.684264,-0.109283 -1.38611,-0.258737 -2.101562,-0.457032 -0.715453,-0.198294 -1.445676,-0.44459 -2.185547,-0.746093 -0.369936,-0.150752 -0.742417,-0.314925 -1.117188,-0.494141 -0.374771,-0.179216 -0.752099,-0.37453 -1.130859,-0.583984 -0.37876,-0.209455 -0.758722,-0.434313 -1.140625,-0.675782 -0.381903,-0.241468 -0.764239,-0.498181 -1.148438,-0.773437 -0.384199,-0.275256 -0.7706,-0.568088 -1.15625,-0.878906 -0.385649,-0.310819 -0.77195,-0.640126 -1.158203,-0.988282 -0.386255,-0.348155 -0.772195,-0.716247 -1.158205,-1.103515 -0.38601,-0.387268 -0.77133,-0.794502 -1.15625,-1.222656 -0.49429,-0.549806 -0.90914,-1.086541 -1.34375,-1.626954 z m 18.654297,32.925783 c 0.320125,0 0.631815,0.0333 0.933594,0.0957 0.301779,0.0624 0.593851,0.15292 0.871093,0.27149 0.277242,0.11857 0.540596,0.2651 0.78711,0.43359 0.246513,0.16849 0.475953,0.36011 0.685547,0.57227 0.209593,0.21215 0.399924,0.44378 0.566406,0.69336 0.166482,0.24957 0.308602,0.51611 0.425781,0.79687 0.11718,0.28076 0.207846,0.57712 0.269531,0.88281 0.06169,0.30569 0.0957,0.62094 0.0957,0.94532 0,0.32524 -0.03399,0.64426 -0.0957,0.95117 -0.06171,0.3069 -0.152312,0.60258 -0.269531,0.88476 -0.117219,0.28219 -0.261211,0.54969 -0.427734,0.80078 -0.166524,0.2511 -0.354829,0.4856 -0.564453,0.69922 -0.209625,0.21363 -0.439024,0.40639 -0.685547,0.57617 -0.246523,0.16979 -0.509891,0.31599 -0.78711,0.43555 -0.277218,0.11956 -0.569383,0.21242 -0.871093,0.27539 -0.301711,0.063 -0.613594,0.0957 -0.933594,0.0957 -0.31875,0 -0.630641,-0.0327 -0.931641,-0.0957 -0.300999,-0.063 -0.592203,-0.15583 -0.86914,-0.27539 -0.276938,-0.11956 -0.538594,-0.26576 -0.785157,-0.43555 -0.246562,-0.16978 -0.477625,-0.36254 -0.6875,-0.57617 -0.209874,-0.21362 -0.399531,-0.44812 -0.566406,-0.69922 -0.166875,-0.25109 -0.310172,-0.51859 -0.427734,-0.80078 -0.117563,-0.28218 -0.209547,-0.57786 -0.271485,-0.88476 -0.06194,-0.30691 -0.09375,-0.62593 -0.09375,-0.95117 0,-0.32438 0.03181,-0.63963 0.09375,-0.94532 0.06194,-0.30569 0.153922,-0.60205 0.271485,-0.88281 0.117562,-0.28076 0.260859,-0.5473 0.427734,-0.79687 0.166875,-0.24958 0.356532,-0.48121 0.566406,-0.69336 0.209875,-0.21216 0.440938,-0.40378 0.6875,-0.57227 0.246563,-0.16849 0.508219,-0.31502 0.785157,-0.43359 0.276937,-0.11857 0.568141,-0.20908 0.86914,-0.27149 0.301,-0.0624 0.612891,-0.0957 0.931641,-0.0957 z"
       style="fill:url(#python-original-b)"
       id="path36" /><path
       d="m -99.326172,18.041016 c -1.055498,0.005 -2.099988,0.03184 -3.126958,0.07813 -1.02696,0.04628 -2.03601,0.11189 -3.02539,0.197265 -0.98937,0.08537 -1.95767,0.190219 -2.90039,0.3125 -0.94271,0.122281 -1.86104,0.262922 -2.74804,0.419922 -0.65313,0.115375 -1.27146,0.237696 -1.85938,0.369141 -0.58792,0.131444 -1.14395,0.2718 -1.66992,0.419922 -0.52597,0.148122 -1.02296,0.305295 -1.49023,0.470703 -0.46727,0.165407 -0.90654,0.338184 -1.31836,0.521484 -0.41182,0.183301 -0.79663,0.376323 -1.15625,0.578125 -0.35962,0.201802 -0.69324,0.413855 -1.00391,0.634766 -0.31067,0.220911 -0.5983,0.450778 -0.86328,0.691406 -0.26498,0.240628 -0.50794,0.491 -0.73047,0.751953 -0.22253,0.260953 -0.42409,0.532568 -0.60742,0.814453 -0.18334,0.281886 -0.3487,0.573527 -0.4961,0.876953 -0.14739,0.303427 -0.27592,0.617785 -0.39062,0.94336 -0.1147,0.325575 -0.21552,0.663387 -0.30078,1.011718 -0.0853,0.348332 -0.15578,0.708382 -0.21485,1.080079 -0.0591,0.371696 -0.10645,0.754722 -0.14257,1.15039 -0.0723,0.791337 -0.10157,1.630611 -0.10157,2.521485 v 9.412109 h 24.693363 v 3.136719 h -33.960933 c -0.4485,0 -0.89329,0.01719 -1.33399,0.05078 -0.44069,0.03359 -0.87738,0.08341 -1.30859,0.150391 -0.43122,0.06698 -0.85728,0.149832 -1.27735,0.25 -0.42006,0.100167 -0.83494,0.218414 -1.24218,0.351562 -0.40725,0.133148 -0.80648,0.281341 -1.19922,0.447266 -0.39275,0.165925 -0.77772,0.348377 -1.1543,0.546875 -0.37658,0.198498 -0.74478,0.413665 -1.10351,0.644531 -0.35874,0.230866 -0.70766,0.477203 -1.04688,0.740234 -0.33922,0.263031 -0.6683,0.5429 -0.98633,0.837891 -0.31803,0.294991 -0.6267,0.604893 -0.92187,0.931641 -0.29517,0.326747 -0.57702,0.670997 -0.84766,1.029296 -0.27064,0.3583 -0.52901,0.731446 -0.77344,1.121094 -0.24443,0.389648 -0.47485,0.794052 -0.6914,1.214844 -0.21655,0.420792 -0.42043,0.858815 -0.60742,1.310547 -0.187,0.451732 -0.3579,0.917923 -0.51368,1.40039 -0.15577,0.482468 -0.29509,0.981142 -0.41797,1.494141 -0.2835,1.175624 -0.53288,2.295224 -0.74804,3.375 -0.21517,1.079776 -0.39732,2.119642 -0.54297,3.132813 -0.14566,1.01317 -0.2551,1.998801 -0.33008,2.974609 -0.075,0.975808 -0.11406,1.940517 -0.11719,2.908203 -0.003,0.967687 0.0297,1.938927 0.0996,2.927734 0.0699,0.988808 0.17622,1.995986 0.32032,3.035157 0.14409,1.039171 0.32546,2.109739 0.54492,3.228515 0.21946,1.118777 0.47743,2.286048 0.77343,3.513672 0.21938,0.913874 0.47684,1.794628 0.77344,2.636719 0.1483,0.421045 0.3066,0.831596 0.47461,1.232422 0.16801,0.400825 0.34522,0.790832 0.5332,1.169922 0.18799,0.379089 0.38553,0.747678 0.59375,1.103515 0.20823,0.355838 0.42752,0.700181 0.65625,1.03125 0.22874,0.331069 0.46728,0.648341 0.7168,0.953125 0.24952,0.304785 0.51069,0.596063 0.78125,0.873047 0.27056,0.276984 0.54992,0.539442 0.8418,0.78711 0.29187,0.247667 0.59474,0.480431 0.9082,0.697265 0.31346,0.216835 0.63931,0.41903 0.97461,0.603516 0.33531,0.184486 0.67969,0.351332 1.03711,0.501953 0.35742,0.150621 0.72762,0.285151 1.10742,0.400391 0.37981,0.115239 0.76942,0.212673 1.17188,0.291015 0.40245,0.07834 0.81681,0.137805 1.24218,0.177735 0.42538,0.03993 0.86199,0.05859 1.31055,0.05859 h 8.49219 V 83.28711 c 0,-0.509437 0.0264,-1.015224 0.0801,-1.515625 0.0537,-0.500401 0.1337,-0.99605 0.23828,-1.484375 0.10458,-0.488324 0.23404,-0.968198 0.38672,-1.441406 0.15267,-0.473208 0.32937,-0.939481 0.52734,-1.394531 0.19797,-0.45505 0.41773,-0.900132 0.6582,-1.333985 0.24048,-0.433852 0.50107,-0.856011 0.78125,-1.265625 0.28018,-0.409613 0.5794,-0.807118 0.89649,-1.189453 0.31709,-0.382334 0.6527,-0.749547 1.0039,-1.101562 0.35121,-0.352015 0.71905,-0.687204 1.10157,-1.00586 0.38252,-0.318655 0.77841,-0.620089 1.18945,-0.902343 0.29936,-0.205567 0.61453,-0.389353 0.92773,-0.574219 -0.0908,-0.226425 -0.19001,-0.455982 -0.27343,-0.679688 -0.17205,-0.461363 -0.32844,-0.915903 -0.47071,-1.365234 -0.14226,-0.449331 -0.27032,-0.893406 -0.38476,-1.330078 -0.22889,-0.873345 -0.40378,-1.720102 -0.53321,-2.539063 -0.12942,-0.81896 -0.21406,-1.609567 -0.25976,-2.36914 -0.0457,-0.759573 -0.0536,-1.48841 -0.0312,-2.183594 0.0223,-0.695184 0.0758,-1.356628 0.15039,-1.982422 0.0746,-0.625793 0.17014,-1.216178 0.28125,-1.767578 0.11111,-0.5514 0.23722,-1.063151 0.36914,-1.535156 0.13192,-0.472005 0.2712,-0.903407 0.4082,-1.291016 0.274,-0.775216 0.54227,-1.37754 0.74219,-1.785156 0.19992,-0.407616 0.33008,-0.621094 0.33008,-0.621094 0,0 0.0191,0.237034 0.0742,0.673828 0.0552,0.436795 0.14662,1.073348 0.29297,1.873047 0.14634,0.7997 0.34758,1.762846 0.62109,2.851563 0.13676,0.544358 0.2915,1.119898 0.4668,1.722656 0.1753,0.602758 0.3715,1.232843 0.58984,1.884766 0.21834,0.651922 0.45873,1.325728 0.72461,2.017578 0.26588,0.69185 0.55708,1.400505 0.875,2.123047 0.31792,0.722542 0.66264,1.459127 1.03711,2.203125 0.3407,0.676917 0.7144,1.36145 1.10547,2.048828 0.50041,-0.05223 1.00793,-0.08008 1.51953,-0.08008 h 5.30469 c -0.0534,-0.08464 -0.1237,-0.173493 -0.17578,-0.257813 -0.49741,-0.805301 -0.93244,-1.595347 -1.3125,-2.369141 -0.38007,-0.773793 -0.70517,-1.531246 -0.98047,-2.269531 -0.27531,-0.738284 -0.50046,-1.457477 -0.6836,-2.15625 -0.18314,-0.698772 -0.32417,-1.377944 -0.42773,-2.033203 -0.10356,-0.655258 -0.17047,-1.286789 -0.20703,-1.894531 -0.0366,-0.607743 -0.0432,-1.191823 -0.0254,-1.748047 0.0178,-0.556224 0.0614,-1.085234 0.12109,-1.585938 0.0597,-0.500703 0.13571,-0.972881 0.22461,-1.414062 0.0889,-0.441181 0.18937,-0.850859 0.29492,-1.228516 0.10555,-0.377656 0.21656,-0.723073 0.32617,-1.033203 0.21923,-0.620259 0.43379,-1.101596 0.59375,-1.427734 0.15997,-0.326138 0.26563,-0.496094 0.26563,-0.496094 0,0 0.0144,0.189579 0.0586,0.539063 0.0442,0.349483 0.11729,0.858198 0.23438,1.498046 0.11709,0.639849 0.27921,1.410157 0.49804,2.28125 0.21884,0.871094 0.49436,1.843499 0.84375,2.886719 0.1747,0.52161 0.36735,1.059725 0.58008,1.613281 0.21274,0.553557 0.4468,1.123059 0.70117,1.701172 0.25438,0.578114 0.53047,1.166439 0.83008,1.761719 0.29962,0.59528 0.62225,1.195724 0.97071,1.800781 0.34845,0.605058 0.72215,1.214822 1.12304,1.822266 0.4009,0.607444 0.82822,1.213965 1.28516,1.816406 0.45694,0.602442 0.94436,1.200967 1.460937,1.791016 0.119235,0.136194 0.256376,0.267053 0.378906,0.402344 h 12.38086 c 0.429124,0 0.854187,-0.02136 1.271484,-0.06445 0.417297,-0.04309 0.826998,-0.107373 1.230469,-0.191406 0.40347,-0.08403 0.799855,-0.18773 1.1875,-0.310547 0.387644,-0.122816 0.766898,-0.264383 1.136718,-0.423828 0.36982,-0.159445 0.730082,-0.337331 1.080079,-0.53125 0.349996,-0.193918 0.689404,-0.404623 1.017578,-0.630859 0.328173,-0.226236 0.644867,-0.468211 0.949218,-0.72461 0.304352,-0.256398 0.596469,-0.528094 0.875,-0.8125 0.278531,-0.284405 0.544211,-0.58232 0.794922,-0.892578 0.250711,-0.310258 0.486139,-0.632842 0.707032,-0.966797 0.220892,-0.333954 0.426159,-0.677706 0.615234,-1.033203 0.189074,-0.355496 0.36232,-0.722773 0.517578,-1.097656 0.155258,-0.374882 0.292668,-0.758277 0.412109,-1.150391 0.119442,-0.392113 0.221108,-0.792029 0.302735,-1.199218 0.08163,-0.407189 0.143734,-0.822078 0.185547,-1.242188 0.04181,-0.420109 0.0625,-0.846469 0.0625,-1.277344 V 31.886719 c 0,-0.418312 -0.02146,-0.829627 -0.06445,-1.234375 -0.04299,-0.404749 -0.105719,-0.80327 -0.189454,-1.19336 -0.08373,-0.390089 -0.188308,-0.772149 -0.310546,-1.146484 -0.122239,-0.374335 -0.263376,-0.740172 -0.421875,-1.097656 -0.1585,-0.357484 -0.334825,-0.707338 -0.527344,-1.046875 -0.19252,-0.339538 -0.400704,-0.669739 -0.625,-0.990235 -0.224297,-0.320495 -0.464918,-0.631282 -0.71875,-0.93164 -0.253832,-0.300358 -0.52161,-0.590016 -0.802735,-0.869141 -0.281124,-0.279125 -0.574684,-0.547892 -0.880859,-0.804687 -0.306175,-0.256796 -0.624141,-0.501005 -0.953125,-0.734375 -0.328984,-0.233371 -0.669981,-0.455212 -1.019531,-0.664063 -0.349551,-0.20885 -0.708297,-0.404656 -1.076172,-0.587891 -0.367875,-0.183234 -0.74495,-0.353243 -1.128906,-0.509765 -0.383957,-0.156522 -0.774079,-0.300973 -1.171875,-0.429688 -0.397797,-0.128714 -0.801544,-0.241985 -1.210938,-0.341797 -0.409394,-0.09981 -0.825391,-0.186046 -1.24414,-0.255859 -1.060999,-0.1765 -2.131673,-0.327953 -3.207032,-0.457031 -1.075358,-0.129078 -2.155188,-0.235297 -3.234375,-0.31836 -1.079186,-0.08306 -2.157985,-0.143187 -3.230468,-0.18164 -1.072484,-0.03845 -2.138111,-0.05553 -3.19336,-0.05078 z m -13.353518,7.568359 c 0.31875,0 0.62866,0.03468 0.92969,0.09766 0.30103,0.06297 0.59216,0.155813 0.86914,0.275391 0.27698,0.119578 0.54049,0.265731 0.78711,0.435547 0.24662,0.169816 0.47756,0.362484 0.6875,0.576172 0.20994,0.213687 0.39947,0.448027 0.56641,0.699218 0.16693,0.251192 0.31012,0.518454 0.42773,0.800782 0.11761,0.282327 0.20952,0.579621 0.27148,0.886718 0.062,0.307098 0.0937,0.625673 0.0937,0.951172 0,0.324125 -0.0318,0.639815 -0.0937,0.945313 -0.0619,0.305497 -0.15391,0.600242 -0.27148,0.880859 -0.11757,0.280617 -0.26084,0.547393 -0.42773,0.796875 -0.1669,0.249482 -0.3565,0.481266 -0.56641,0.693359 -0.20991,0.212094 -0.44089,0.403815 -0.6875,0.572266 -0.24661,0.168451 -0.5101,0.313086 -0.78711,0.431641 -0.27701,0.118554 -0.56609,0.211033 -0.86719,0.273437 -0.30109,0.0624 -0.61276,0.0957 -0.93164,0.0957 -0.32,0 -0.63386,-0.0333 -0.93554,-0.0957 -0.30169,-0.0624 -0.59197,-0.154883 -0.86915,-0.273437 -0.27717,-0.118555 -0.54064,-0.26319 -0.7871,-0.431641 -0.24647,-0.168451 -0.47599,-0.360172 -0.68555,-0.572266 -0.20956,-0.212093 -0.39994,-0.443877 -0.56641,-0.693359 -0.16646,-0.249482 -0.30861,-0.516258 -0.42578,-0.796875 -0.11717,-0.280617 -0.20785,-0.575362 -0.26953,-0.880859 -0.0617,-0.305498 -0.0937,-0.621188 -0.0937,-0.945313 -1.2e-4,-0.325499 0.0321,-0.644074 0.0937,-0.951172 0.0616,-0.307097 0.15238,-0.604391 0.26953,-0.886718 0.11715,-0.282328 0.25931,-0.54959 0.42578,-0.800782 0.16648,-0.251191 0.35682,-0.485531 0.56641,-0.699218 0.20959,-0.213688 0.43904,-0.406356 0.68555,-0.576172 0.2465,-0.169816 0.50989,-0.315969 0.7871,-0.435547 0.27722,-0.119578 0.56744,-0.212418 0.86915,-0.275391 0.3017,-0.06297 0.61554,-0.09766 0.93554,-0.09766 z"
       style="fill:url(#python-original-a)"
       id="path31" /><path
       d="m -118.75977,70.078125 c 0.11685,-0.06897 0.22704,-0.148872 0.34571,-0.214844 0.43676,-0.242813 0.88601,-0.465684 1.3457,-0.666015 0.45969,-0.200332 0.93033,-0.378394 1.41016,-0.533204 0.47982,-0.154809 0.96768,-0.286331 1.46484,-0.392578 0.49716,-0.106247 1.00198,-0.187543 1.51367,-0.242187 0.0116,-0.0012 0.0236,-7.45e-4 0.0352,-0.002 -0.39107,-0.687378 -0.76477,-1.371911 -1.10547,-2.048828 -0.37447,-0.743998 -0.71919,-1.480583 -1.03711,-2.203125 -0.31792,-0.722542 -0.60912,-1.431197 -0.875,-2.123047 -0.26588,-0.69185 -0.50627,-1.365656 -0.72461,-2.017578 -0.21834,-0.651923 -0.41454,-1.282008 -0.58984,-1.884766 -0.1753,-0.602758 -0.33004,-1.178298 -0.4668,-1.722656 -0.27351,-1.088717 -0.47475,-2.051863 -0.62109,-2.851563 -0.14635,-0.799699 -0.2378,-1.436252 -0.29297,-1.873047 -0.0552,-0.436794 -0.0742,-0.673828 -0.0742,-0.673828 0,0 -0.13016,0.213478 -0.33008,0.621094 -0.19992,0.407616 -0.46819,1.00994 -0.74219,1.785156 -0.137,0.387609 -0.27628,0.819011 -0.4082,1.291016 -0.13192,0.472005 -0.25803,0.983756 -0.36914,1.535156 -0.11111,0.5514 -0.20668,1.141785 -0.28125,1.767578 -0.0746,0.625794 -0.12809,1.287238 -0.15039,1.982422 -0.0223,0.695184 -0.0144,1.424021 0.0312,2.183594 0.0457,0.759573 0.13034,1.55018 0.25976,2.36914 0.12943,0.818961 0.30432,1.665718 0.53321,2.539063 0.11444,0.436672 0.2425,0.880747 0.38476,1.330078 0.14227,0.449331 0.29866,0.903871 0.47071,1.365234 0.0834,0.223706 0.18267,0.453263 0.27343,0.679688 z"
       style="fill:#fdfdfd;stroke:#fdfdfd;stroke-width:0.0946568"
       id="path39" /><path
       d="m -117.46094,72.900391 c 0.13838,0.266549 0.26883,0.531247 0.41797,0.800781 0.27319,0.493711 0.56417,0.99285 0.875,1.496094 0.31083,0.503243 0.64174,1.011287 0.99219,1.523437 0.35045,0.512151 0.72125,1.028396 1.11328,1.548828 0.39203,0.520432 0.80466,1.044177 1.24023,1.572266 0.43558,0.528088 0.89392,1.060584 1.375,1.595703 0.48109,0.535119 0.96287,1.043326 1.44532,1.527344 0.48244,0.484018 0.96647,0.943771 1.44922,1.378906 0.48275,0.435135 0.96527,0.845905 1.44726,1.234375 0.482,0.38847 0.96318,0.753634 1.44336,1.097656 0.48018,0.344023 0.95823,0.666957 1.43555,0.96875 0.47731,0.301794 0.95239,0.583921 1.42578,0.845703 0.47338,0.261783 0.94566,0.502574 1.41406,0.726563 0.4684,0.223989 0.93413,0.430727 1.396486,0.61914 0.462356,0.188414 0.921698,0.358616 1.376953,0.513672 0.455255,0.155057 0.906419,0.294052 1.353515,0.417969 0.447097,0.123917 0.890246,0.233129 1.328125,0.328125 0.43788,0.095 0.86927,0.175848 1.296875,0.244141 0.855212,0.136585 1.690279,0.222545 2.498047,0.265625 0.807769,0.04308 1.589934,0.0444 2.341797,0.01172 0.751864,-0.03268 1.47266,-0.09875 2.160156,-0.189453 0.687497,-0.0907 1.34041,-0.206916 1.955079,-0.33789 0.614668,-0.130975 1.191231,-0.278136 1.724609,-0.431641 0.533378,-0.153505 1.023171,-0.312412 1.466797,-0.470703 0.887252,-0.316583 1.586979,-0.626202 2.064453,-0.855469 0.477473,-0.229266 0.734375,-0.378906 0.734375,-0.378906 0,0 -0.22528,-0.0051 -0.640625,-0.03711 -0.415345,-0.03203 -1.021373,-0.09145 -1.785156,-0.197266 -0.763783,-0.105814 -1.685156,-0.25911 -2.730469,-0.480469 -0.522657,-0.110679 -1.075756,-0.23737 -1.65625,-0.384765 -0.580494,-0.147396 -1.188392,-0.314575 -1.818359,-0.503907 -0.629968,-0.189331 -1.282047,-0.402184 -1.953125,-0.638672 -0.671079,-0.236487 -1.360628,-0.496293 -2.064454,-0.785156 -0.703825,-0.288863 -1.422181,-0.606666 -2.15039,-0.953125 -0.728209,-0.346459 -1.466709,-0.721585 -2.210938,-1.130859 -0.744229,-0.409274 -1.494208,-0.852769 -2.246093,-1.330078 -0.751886,-0.47731 -1.506638,-0.988498 -2.257818,-1.539063 -0.75117,-0.550564 -1.50007,-1.140491 -2.24218,-1.769531 -0.74211,-0.62904 -1.4765,-1.297031 -2.20117,-2.009766 -0.72468,-0.712734 -1.40906,-1.440275 -2.05469,-2.177734 -0.64563,-0.737459 -1.25313,-1.485333 -1.82422,-2.238281 -0.43307,-0.570978 -0.82627,-1.147441 -1.21875,-1.722657 h -0.38281 c -0.42225,0 -0.8399,0.0224 -1.25196,0.06641 -0.41206,0.04401 -0.81708,0.10964 -1.21679,0.195312 -0.39971,0.08567 -0.79449,0.191414 -1.17969,0.316406 -0.3852,0.124993 -0.76233,0.269673 -1.13086,0.431641 -0.36853,0.161969 -0.72842,0.340508 -1.07813,0.537109 -0.16373,0.09205 -0.3173,0.199564 -0.47656,0.298829 z"
       style="fill:#fdfdfd;stroke:#fdfdfd;stroke-width:0.0946568"
       id="path38" /><path
       d="m -103.5625,71.054687 c 0.43461,0.540413 0.84946,1.077148 1.34375,1.626954 0.38492,0.428154 0.77024,0.835388 1.15625,1.222656 0.38601,0.387268 0.77195,0.75536 1.158203,1.103515 0.386253,0.348156 0.772554,0.677463 1.158203,0.988282 0.38565,0.310818 0.772051,0.60365 1.15625,0.878906 0.384199,0.275256 0.766535,0.531969 1.148438,0.773437 0.381903,0.241469 0.761865,0.466327 1.140625,0.675782 0.37876,0.209454 0.756088,0.404768 1.130859,0.583984 0.374771,0.179216 0.747252,0.343389 1.117188,0.494141 0.739871,0.301503 1.470094,0.547799 2.185547,0.746093 0.715452,0.198295 1.417298,0.347749 2.101562,0.457032 0.684264,0.109283 1.34979,0.178422 1.996094,0.21289 0.646304,0.03447 1.273426,0.03396 1.875,0.0078 0.601574,-0.02615 1.178442,-0.07782 1.728515,-0.150391 0.550074,-0.07257 1.072651,-0.164737 1.564454,-0.269531 0.491802,-0.104794 0.952144,-0.222882 1.378906,-0.345703 0.426761,-0.122821 0.818878,-0.250303 1.173828,-0.376953 0.7099,-0.253301 1.270312,-0.500155 1.652344,-0.683594 0.382031,-0.183439 0.585937,-0.304688 0.585937,-0.304688 0,0 -0.179396,-0.0037 -0.511719,-0.0293 -0.332322,-0.02563 -0.816623,-0.07159 -1.427734,-0.15625 -0.611111,-0.08466 -1.349181,-0.207654 -2.185547,-0.384766 -0.836366,-0.177112 -1.771209,-0.409918 -2.779297,-0.712891 -0.504044,-0.151486 -1.025563,-0.320549 -1.5625,-0.509765 -0.536937,-0.189216 -1.089205,-0.397784 -1.652343,-0.628907 -0.563139,-0.231122 -1.138056,-0.484513 -1.720704,-0.761718 -0.582647,-0.277206 -1.174065,-0.578786 -1.769531,-0.90625 -0.595465,-0.327465 -1.195283,-0.6806 -1.796875,-1.0625 -0.601591,-0.381901 -1.203661,-0.791909 -1.804687,-1.232422 -0.53371,-0.391175 -1.065467,-0.815358 -1.59375,-1.25586 z"
       style="fill:#fdfdfd;stroke:#fdfdfd;stroke-width:0.0757359"
       id="path35" /><path
       d="m -98.841797,67.947266 c -0.12253,-0.135291 -0.259671,-0.26615 -0.378906,-0.402344 -0.516577,-0.590049 -1.003997,-1.188574 -1.460937,-1.791016 -0.45694,-0.602441 -0.88426,-1.208962 -1.28516,-1.816406 -0.40089,-0.607444 -0.77459,-1.217208 -1.12304,-1.822266 -0.34846,-0.605057 -0.67109,-1.205501 -0.97071,-1.800781 -0.29961,-0.59528 -0.5757,-1.183605 -0.83008,-1.761719 -0.25437,-0.578113 -0.48843,-1.147615 -0.70117,-1.701172 -0.21273,-0.553556 -0.40538,-1.091671 -0.58008,-1.613281 -0.34939,-1.04322 -0.62491,-2.015625 -0.84375,-2.886719 -0.21883,-0.871093 -0.38095,-1.641401 -0.49804,-2.28125 -0.11709,-0.639848 -0.19023,-1.148563 -0.23438,-1.498046 -0.0441,-0.349484 -0.0586,-0.539063 -0.0586,-0.539063 0,0 -0.10566,0.169956 -0.26563,0.496094 -0.15996,0.326138 -0.37452,0.807475 -0.59375,1.427734 -0.10961,0.31013 -0.22062,0.655547 -0.32617,1.033203 -0.10555,0.377657 -0.20602,0.787335 -0.29492,1.228516 -0.0889,0.441181 -0.16494,0.913359 -0.22461,1.414062 -0.0597,0.500704 -0.10325,1.029714 -0.12109,1.585938 -0.0178,0.556224 -0.0112,1.140304 0.0254,1.748047 0.0366,0.607742 0.10347,1.239273 0.20703,1.894531 0.10356,0.655259 0.24459,1.334431 0.42773,2.033203 0.18314,0.698773 0.40829,1.417966 0.6836,2.15625 0.2753,0.738285 0.6004,1.495738 0.98047,2.269531 0.38006,0.773794 0.81509,1.56384 1.3125,2.369141 0.0521,0.08432 0.12233,0.173172 0.17578,0.257813 z"
       style="fill:#fdfdfd;stroke:#fdfdfd;stroke-width:0.0757359"
       id="path33" /></g></svg>
